HIERARCHY
ROOT Hips
{
	OFFSET 0.000000 0.000000 0.000000 
	CHANNELS 6 Xposition Yposition Zposition Yrotation Zrotation Xrotation 
	JOINT Lumbar
	{
		OFFSET 0.000000 0.000000 0.000000 
		CHANNELS 3 Zrotation Xrotation Yrotation
		JOINT Neck
		{
			OFFSET 0.000000 0.445665 0.000000 
			CHANNELS 3 Zrotation Xrotation Yrotation
			End Site
			{
				OFFSET 0.000000 0.227535 0.000000 
			}
		}
		JOINT RightShoulder
		{
			OFFSET 0.019635 0.377685 0.194865 
			CHANNELS 3 Zrotation Xrotation Yrotation
			JOINT RightElbow
			{
				OFFSET 0.000000 -0.243375 0.000000 
				CHANNELS 2 Zrotation Yrotation
				JOINT RightWrist
				{
					OFFSET 0.000000 -0.264825 0.000000 
					CHANNELS 2 Zrotation Xrotation
					End Site
					{
						OFFSET 0.006600 -0.176220 0.000990 
					}
				}
			}
		}
		JOINT LeftShoulder
		{
			OFFSET 0.019635 0.377685 -0.194865 
			CHANNELS 3 Zrotation Xrotation Yrotation
			JOINT LeftElbow
			{
				OFFSET 0.000000 -0.243375 0.000000 
				CHANNELS 2 Zrotation Yrotation
				JOINT LeftWrist
				{
					OFFSET 0.000000 -0.264825 0.000000 
					CHANNELS 2 Zrotation Xrotation
					End Site
					{
						OFFSET 0.006600 -0.176220 -0.000990 
					}
				}
			}
		}
	}
	JOINT RightHip
	{
		OFFSET 0.052140 -0.069960 0.075570 
		CHANNELS 3 Zrotation Xrotation Yrotation
		JOINT RightKnee
		{
			OFFSET 0.000000 -0.402270 0.000000 
			CHANNELS 1 Zrotation
			JOINT RightAnkle
			{
				OFFSET 0.000000 -0.404085 0.000000 
				CHANNELS 3 Zrotation Xrotation Yrotation
				End Site
				{
					OFFSET 0.204105 -0.089430 0.008415 
				}
			}
		}
	}
	JOINT LeftHip
	{
		OFFSET 0.052140 -0.069960 -0.075570 
		CHANNELS 3 Zrotation Xrotation Yrotation
		JOINT LeftKnee
		{
			OFFSET 0.000000 -0.402270 0.000000 
			CHANNELS 1 Zrotation
			JOINT LeftAnkle
			{
				OFFSET 0.000000 -0.404085 0.000000 
				CHANNELS 3 Zrotation Xrotation Yrotation
				End Site
				{
					OFFSET 0.204105 -0.089430 -0.008415 
				}
			}
		}
	}
}
MOTION
Frames: 28
Frame Time: 0.02
-0.0003 0.00024 0.00027 20.98458 -31.7279 -5.1778 55.58368 0.70393 -0.2 -6.83236 -1.84486 -1.22976 135.8965 -79.06284 -70.19647 9.38391 66.91687 1.01878 -8.0218 144.24112 75.83954 87.13758 7.47357 -71.31662 0.97931 11.10977 48.30021 0.69863 -14.17605 -19.99604 -6.45053 -3.5966 -3.9784 52.959 0.63971 0.46171 -24.21479 -8.4246 4.02735 4.29626
4e-05 0.00023 -2e-05 20.92266 -31.79263 -5.0948 55.58957 0.67701 -0.16342 -6.81139 -1.81699 -1.23055 136.07684 -79.02646 -69.98829 9.36373 66.98098 1.01098 -8.01177 144.72328 75.82595 87.13508 7.49136 -71.25941 1.1246 11.06285 48.37058 0.60321 -14.26406 -19.95893 -6.4831 -3.56973 -3.96632 52.97508 0.7486 1.30866 -24.21173 -8.35558 3.96873 4.26313
0.00037 0.00022 -0.00032 20.86084 -31.8572 -5.01199 55.59545 0.65017 -0.1269 -6.79047 -1.7892 -1.23133 136.2567 -78.99017 -69.78088 9.3436 67.04489 1.00322 -8.00175 145.2043 75.81241 87.13258 7.50907 -71.20211 1.26951 11.016 48.44077 0.50807 -14.35148 -19.92195 -6.51561 -3.54295 -3.95429 52.99107 0.85719 2.15345 -24.20868 -8.28675 3.91027 4.23009
0.00071 0.00021 -0.00061 20.79909 -31.92175 -4.92923 55.60133 0.62334 -0.09042 -6.76957 -1.76141 -1.23212 136.43649 -78.9539 -69.57338 9.32348 67.10879 0.99544 -7.99175 145.68505 75.79887 87.13009 7.5268 -71.14503 1.41437 10.96921 48.51092 0.41294 -14.43917 -19.88496 -6.54809 -3.51616 -3.94226 53.00709 0.96574 2.99786 -24.20563 -8.21794 3.85183 4.19707
0.00104 0.0002 -0.00091 20.73729 -31.98644 -4.84633 55.60723 0.59642 -0.05388 -6.7486 -1.73356 -1.2329 136.61675 -78.91756 -69.36501 9.30333 67.17292 0.98759 -7.98177 146.16672 75.78527 87.12758 7.54461 -71.08817 1.55957 10.92237 48.58123 0.31754 -14.5276 -19.84783 -6.58061 -3.48927 -3.93017 53.02322 1.07457 3.84427 -24.20256 -8.14897 3.79323 4.16396
0.00138 0.00019 -0.0012 20.67543 -32.05076 -4.76372 55.61306 0.56975 -0.01742 -6.72779 -1.7059 -1.23368 136.7958 -78.88137 -69.15958 9.28321 67.23636 0.98002 -7.97166 146.64631 75.77186 87.12511 7.56215 -71.02997 1.70383 10.87554 48.65117 0.22294 -14.61291 -19.81118 -6.61309 -3.46271 -3.91826 53.03892 1.18265 4.68561 -24.19955 -8.08043 3.73505 4.13106
0.00171 0.00018 -0.0015 20.61374 -32.11575 -4.6806 55.61902 0.54262 0.01916 -6.7067 -1.67788 -1.23447 136.977 -78.84492 -68.94864 9.26306 67.30108 0.97192 -7.9618 147.12972 75.75809 87.12258 7.58019 -70.97447 1.84987 10.82871 48.72178 0.12686 -14.70432 -19.7736 -6.64563 -3.43553 -3.90601 53.05548 1.29211 5.53615 -24.19644 -8.01111 3.67611 4.09779
0.00204 0.00017 -0.00179 20.55194 -32.18013 -4.59795 55.62487 0.51591 0.05561 -6.68585 -1.65019 -1.23525 137.15635 -78.80871 -68.74246 9.24296 67.36468 0.96429 -7.95174 147.60932 75.74465 87.1201 7.59777 -70.91658 1.9942 10.78192 48.79175 0.0321 -14.79027 -19.73686 -6.67811 -3.40891 -3.89407 53.07123 1.40032 6.37835 -24.19342 -7.94249 3.61785 4.06485
0.00238 0.00017 -0.00209 20.48976 -32.24375 -4.51585 55.63056 0.4897 0.092 -6.66536 -1.62289 -1.23604 137.33299 -78.77278 -68.5433 9.22283 67.4267 0.95729 -7.94131 148.08568 75.73163 87.11767 7.61479 -70.85528 2.1368 10.73498 48.86108 -0.06091 -14.86884 -19.70121 -6.71053 -3.38302 -3.88253 53.08606 1.50698 7.21023 -24.19051 -7.87475 3.56047 4.03235
0.0027 0.00015 -0.00238 20.42903 -32.31172 -4.43048 55.63706 0.46057 0.12906 -6.64298 -1.59332 -1.23682 137.52391 -78.7352 -68.30738 9.20257 67.49717 0.94683 -7.93264 148.58495 75.71621 87.11492 7.63506 -70.81214 2.29042 10.68832 48.93451 -0.16358 -14.98775 -19.65949 -6.74336 -3.35304 -3.86873 53.10636 1.62249 8.10112 -24.18693 -7.80201 3.49819 3.9974
0.00307 0.00015 -0.00269 20.36571 -32.37052 -4.35212 55.64193 0.43764 0.16447 -6.62448 -1.56854 -1.23761 137.68553 -78.7011 -68.14669 9.18277 67.55024 0.94355 -7.92049 149.03309 75.70585 87.11286 7.64845 -70.73165 2.4201 10.64145 48.99902 -0.24611 -15.02294 -19.63045 -6.77527 -3.33164 -3.85965 53.11502 1.71934 8.86765 -24.18481 -7.73979 3.44614 3.96758
0.00361 0.00018 -0.00301 20.29132 -32.40385 -4.29215 55.64172 0.43154 0.19743 -6.61767 -1.55717 -1.23843 137.75917 -78.67675 -68.21373 9.16267 67.55146 0.96138 -7.89646 149.36231 75.70976 87.11264 7.64292 -70.53946 2.48896 10.59062 49.04114 -0.27101 -14.81476 -19.63771 -6.80519 -3.33456 -3.86407 53.09206 1.76439 9.28826 -24.18648 -7.70714 3.4232 3.95232
0.0042 0.00022 -0.00335 20.21506 -32.42802 -4.23937 55.63999 0.43174 0.22839 -6.61457 -1.55069 -1.23926 137.8047 -78.6559 -68.35257 9.14325 67.53595 0.98618 -7.86924 149.63596 75.71876 87.1131 7.6304 -70.31133 2.53276 10.54007 49.07392 -0.27615 -14.52513 -19.65746 -6.83407 -3.34596 -3.87311 53.05733 1.79073 9.58446 -24.18966 -7.68495 3.41036 3.94216
0.00478 0.00025 -0.00369 20.14225 -32.45657 -4.18382 55.63935 0.42913 0.25889 -6.60905 -1.54161 -1.24007 137.8682 -78.63326 -68.44439 9.12464 67.53082 1.00685 -7.84519 149.92142 75.72508 87.1133 7.6212 -70.10582 2.58501 10.49178 49.10963 -0.29189 -14.28154 -19.6705 -6.86312 -3.35301 -3.87968 53.02777 1.82614 9.94121 -24.19231 -7.65748 3.39216 3.92935
0.00533 0.00028 -0.00401 20.05848 -32.48419 -4.12618 55.63701 0.42612 0.29501 -6.60656 -1.53359 -1.24093 137.91017 -78.61127 -68.59626 9.10163 67.51404 1.03151 -7.81444 150.26461 75.73264 87.11336 7.61175 -69.87427 2.65011 10.43398 49.15092 -0.30071 -13.9993 -19.68783 -6.89356 -3.36222 -3.88785 52.99895 1.85951 10.28252 -24.19433 -7.63214 3.3771 3.91787
0.00595 0.00033 -0.00438 19.99703 -32.51159 -4.07461 55.63787 0.42568 0.31916 -6.59872 -1.52519 -1.2417 137.98977 -78.58899 -68.64115 9.08756 67.51744 1.04963 -7.79617 150.47301 75.73922 87.11378 7.60072 -69.68774 2.68187 10.39535 49.17832 -0.31932 -13.77873 -19.6993 -6.92074 -3.36888 -3.89374 52.96579 1.89221 10.62431 -24.19798 -7.60499 3.35807 3.90493
0.00672 0.00039 -0.00488 19.99826 -32.54053 -4.03807 55.64783 0.42892 0.30906 -6.57441 -1.50914 -1.24212 138.18453 -78.56307 -68.36406 9.10133 67.5817 1.04733 -7.81884 150.33016 75.73872 87.11498 7.5907 -69.64274 2.63253 10.41472 49.17024 -0.36911 -13.74436 -19.6905 -6.94019 -3.36698 -3.89248 52.92359 1.93183 11.01708 -24.20598 -7.56905 3.32395 3.88573
0.00755 0.00046 -0.00543 20.02191 -32.56958 -4.00745 55.66108 0.43494 0.28737 -6.5446 -1.49385 -1.24246 138.41703 -78.53721 -67.97895 9.12352 67.66664 1.03867 -7.85279 150.04912 75.73787 87.11595 7.57856 -69.64429 2.54908 10.45188 49.1484 -0.42947 -13.77535 -19.67554 -6.95623 -3.36216 -3.88873 52.87741 1.9707 11.4112 -24.21552 -7.53114 3.28578 3.86505
0.00836 0.00053 -0.00597 20.03492 -32.59863 -3.97403 55.6729 0.44084 0.27199 -6.518 -1.48135 -1.24287 138.62979 -78.51245 -67.64857 9.13959 67.74144 1.03291 -7.87826 149.83045 75.7389 87.11777 7.56512 -69.61701 2.47878 10.4782 49.13251 -0.48555 -13.77946 -19.6641 -6.97315 -3.35827 -3.88588 52.83304 2.00711 11.79196 -24.22417 -7.49497 3.25058 3.84571
0.00916 0.0006 -0.00647 20.04975 -32.62717 -3.94109 55.68442 0.4419 0.25183 -6.48906 -1.4545 -1.24312 138.85378 -78.48258 -67.29498 9.16507 67.81885 1.02593 -7.91916 149.62432 75.73185 87.1188 7.56135 -69.61443 2.41972 10.51835 49.1176 -0.5391 -13.77002 -19.65014 -6.99276 -3.35621 -3.88406 52.78832 2.05445 12.22166 -24.23365 -7.45568 3.21104 3.82383
0.01 0.00067 -0.00705 20.06616 -32.65691 -3.90876 55.69737 0.45395 0.2393 -6.46295 -1.45925 -1.24369 139.06213 -78.46392 -66.96554 9.17329 67.89586 1.02164 -7.9289 149.34409 75.74273 87.11848 7.53656 -69.58004 2.32675 10.5312 49.09745 -0.60025 -13.80388 -19.63972 -7.0061 -3.34971 -3.87958 52.74347 2.0794 12.55201 -24.24177 -7.42221 3.17932 3.80673
0.01093 0.00077 -0.00779 20.08159 -32.68985 -3.87414 55.71331 0.49265 0.24734 -6.45212 -1.53763 -1.24516 139.22837 -78.47239 -66.71096 9.12826 67.9693 1.01253 -7.86366 148.98191 75.79887 87.12522 7.46004 -69.37437 2.17091 10.48686 49.06674 -0.68359 -13.95482 -19.64141 -7.00193 -3.33003 -3.86729 52.69972 2.03987 12.6024 -24.24561 -7.40583 3.1711 3.80385
0.01191 0.00087 -0.00861 20.09811 -32.72398 -3.84041 55.7306 0.5428 0.26424 -6.44333 -1.65028 -1.24696 139.37358 -78.4937 -66.48917 9.06594 68.04241 1.00975 -7.76344 148.50085 75.87821 87.11863 7.36252 -69.14688 1.97737 10.40975 49.03111 -0.77365 -14.1451 -19.6468 -6.99175 -3.30625 -3.85261 52.65588 1.97839 12.5541 -24.24808 -7.39523 3.17062 3.80568
0.01287 0.00097 -0.00939 20.11363 -32.75778 -3.80783 55.74739 0.58971 0.27909 -6.42933 -1.75603 -1.24863 139.5246 -78.51048 -66.26181 9.01416 68.11255 1.012 -7.67098 148.05778 75.94422 87.12374 7.26939 -68.97912 1.78738 10.33342 48.99757 -0.8582 -14.30871 -19.64975 -6.98501 -3.28534 -3.83972 52.61194 1.92896 12.55541 -24.25124 -7.38159 3.16596 3.80491
0.01382 0.00107 -0.01016 20.13078 -32.79107 -3.76871 55.76389 0.62863 0.28458 -6.4325 -1.82517 -1.2502 139.70183 -78.51814 -65.98432 8.95241 68.19171 0.97711 -7.61593 147.81197 76.00413 87.14595 7.19329 -68.61016 1.65636 10.31917 48.96452 -0.95333 -14.51105 -19.65517 -6.97521 -3.26005 -3.82375 52.56881 1.87092 12.5377 -24.25407 -7.36964 3.16409 3.80608
0.01481 0.00117 -0.01099 20.14608 -32.82525 -3.74361 55.7812 0.68665 0.31256 -6.40136 -1.97874 -1.25208 139.8076 -78.55236 -65.82925 8.9059 68.25784 1.02558 -7.47118 146.96029 76.10466 87.07804 7.08258 -68.6451 1.39045 10.16528 48.92898 -1.02805 -14.642 -19.65704 -6.97035 -3.24299 -3.81367 52.5236 1.82539 12.53479 -24.25736 -7.35557 3.15817 3.80431
0.01587 0.00129 -0.01195 20.1431 -32.86519 -3.75476 55.80089 0.79637 0.39408 -6.26733 -2.35614 -1.25469 139.83403 -78.62034 -65.92877 8.91674 68.24783 1.26392 -7.11542 145.99721 76.10493 87.19515 6.83787 -69.89284 0.7907 9.65754 48.89226 -1.04353 -14.55947 -19.64399 -6.98087 -3.24929 -3.82035 52.47606 1.82158 12.60906 -24.26135 -7.33419 3.14007 3.79351
0.01696 0.00141 -0.01298 20.14104 -32.90523 -3.78041 55.8211 0.92444 0.49911 -6.10027 -2.81716 -1.25767 139.77882 -78.72283 -66.16472 8.94128 68.24051 1.59245 -6.66509 144.2058 76.17342 87.13583 6.57148 -71.53844 0.05048 9.00875 48.85268 -1.03859 -14.40474 -19.62882 -6.99654 -3.26412 -3.83307 52.42576 1.83081 12.69948 -24.26606 -7.31049 3.11742 3.77952
